<svg width="475" height="855" viewBox="0 0 475 855" fill="none" xmlns="http://www.w3.org/2000/svg">
<g opacity="0.1">
<path fill-rule="evenodd" clip-rule="evenodd" d="M57.148 609.663C56.4106 607.914 54.9816 606.233 53.2244 605.481C52.6975 605.446 52.1346 605.382 51.5532 605.316C49.4932 605.082 47.2015 604.821 45.4581 605.717L45.2455 606.01L45.6942 606.225C45.7253 606.207 45.7559 606.189 45.7865 606.17C45.8518 606.13 45.9169 606.09 45.9863 606.059C47.6182 605.316 49.6446 605.435 51.3639 605.722L51.363 606.104L51.2575 606.2C53.4454 607.823 54.9968 609.199 55.4744 612.05C55.883 614.49 55.0499 616.93 53.6171 618.895C51.6094 621.647 48.36 623.693 44.9839 624.207C41.0354 624.809 37.3474 623.095 34.2935 620.724C30.263 617.594 27.3978 611.989 26.8944 606.932C26.3397 601.36 27.8248 595.02 31.4325 590.67C35.2816 586.029 41.3433 583.611 47.2567 583.193C53.4791 582.754 59.2522 585.52 63.8342 589.565C72.8099 597.488 75.3037 609.986 75.8916 621.454C76.7523 638.235 71.2308 655.181 65.9966 671.245L65.9963 671.246C65.083 674.049 64.1784 676.825 63.318 679.569C60.8723 687.368 58.488 695.431 56.7633 703.423C50.2629 733.544 49.6552 766.252 55.947 796.447C57.1011 801.987 58.6849 807.434 60.2654 812.869L60.2675 812.876C60.572 813.923 60.8763 814.969 61.1774 816.016C61.5917 817.457 61.9866 818.912 62.3821 820.37C63.1978 823.377 64.0167 826.396 65.0162 829.317C65.8781 831.836 66.9097 834.298 67.9412 836.759C68.7454 838.678 69.5498 840.598 70.2734 842.544L70.0575 842.698L69.7173 842.202C54.543 818.213 48.5475 803.686 43.913 775.152C41.3165 759.167 41.5384 743.032 41.7602 726.898L41.7602 726.897C41.7752 725.804 41.7902 724.711 41.8044 723.618C41.8388 720.957 41.9367 718.241 42.0356 715.496C42.4105 705.09 42.8003 694.272 39.8047 684.513C37.6693 677.557 33.4926 671.353 25.9593 669.605C20.1447 668.257 13.8974 669.831 8.96347 673.052C4.06985 676.247 1.63442 680.934 0.496927 686.511C-0.64805 692.125 0.135771 697.722 3.36817 702.523C5.40648 705.551 8.41255 708.016 12.0592 708.719C12.4327 708.789 12.8086 708.84 13.1871 708.873C13.5657 708.906 13.9449 708.92 14.3248 708.915C14.7047 708.911 15.0835 708.887 15.4611 708.845C15.8387 708.803 16.2133 708.743 16.5849 708.664C16.9566 708.585 17.3235 708.487 17.6856 708.372C18.0477 708.257 18.4032 708.124 18.7522 707.974C19.1013 707.824 19.4421 707.657 19.7746 707.473C20.1072 707.289 20.43 707.089 20.7429 706.874C23.1243 705.244 24.9297 703.058 25.4214 700.171C25.9653 696.978 25.245 693.184 23.3163 690.545C22.2657 689.107 20.554 688.149 18.7915 687.945C16.9118 687.728 15.0252 688.245 13.5659 689.465C12.3484 690.483 11.5868 691.738 11.5343 693.354C11.4878 694.786 12.2577 696.141 13.2537 697.118L13.2649 697.129C13.8042 697.658 14.2618 698.107 15.0383 698.203C14.9808 697.408 14.4645 696.642 13.9478 695.875C13.0729 694.575 12.1967 693.274 13.5439 691.831C14.2413 691.084 15.0484 690.865 16.036 690.903C16.2627 690.914 16.4882 690.936 16.7126 690.97C16.9369 691.005 17.159 691.05 17.3787 691.107C17.5984 691.164 17.8146 691.232 18.0273 691.311C18.24 691.39 18.4481 691.48 18.6515 691.581C18.855 691.681 19.0528 691.792 19.2449 691.913C19.437 692.034 19.6224 692.164 19.8011 692.304C19.9798 692.444 20.1509 692.593 20.3144 692.751C20.4778 692.908 20.6327 693.074 20.7792 693.247C21.9798 694.648 22.5001 696.422 22.3342 698.256C22.166 700.114 21.2531 701.69 19.7652 702.803C17.8576 704.23 15.3148 704.777 12.9814 704.353C10.4763 703.898 8.18526 702.312 6.81488 700.173C4.47289 696.519 4.32253 690.093 5.36598 685.974C5.43452 685.708 5.50962 685.444 5.59127 685.182C5.67288 684.92 5.76095 684.66 5.85548 684.403C5.94997 684.145 6.05078 683.89 6.15791 683.637C6.26505 683.384 6.3784 683.134 6.49796 682.887C6.61747 682.64 6.74305 682.395 6.87471 682.154C7.00632 681.913 7.14382 681.676 7.2872 681.442C7.43059 681.208 7.57968 680.977 7.73447 680.75C7.88927 680.524 8.04958 680.301 8.21542 680.083C8.38125 679.864 8.55237 679.649 8.72879 679.439C8.90525 679.229 9.08682 679.023 9.27349 678.822C9.46012 678.62 9.65162 678.424 9.848 678.232C10.0444 678.04 10.2454 677.854 10.451 677.672C10.6567 677.49 10.8667 677.313 11.0811 677.141C11.2954 676.97 11.5139 676.805 11.7365 676.644C11.9591 676.484 12.1856 676.328 12.4158 676.179C12.6461 676.03 12.8799 675.886 13.1173 675.749C16.5867 673.722 20.8163 672.914 24.7339 673.964C28.3805 674.942 31.1795 677.342 33.0231 680.592C38.4501 690.159 37.651 708.375 37.0512 722.049C36.921 725.017 36.8001 727.772 36.7544 730.177C36.6205 737.219 36.786 744.368 37.1129 751.403C37.4034 757.95 37.9822 764.472 38.8494 770.967C39.7166 777.464 40.8688 783.909 42.3059 790.303C45.2429 803.238 49.1953 816.237 55.6403 827.892C57.2396 830.783 58.9996 833.584 60.7595 836.384C62.5854 839.289 64.4113 842.194 66.0574 845.2C60.7984 840.232 55.8751 833.891 51.8085 827.901C50.8059 826.424 49.6167 824.398 48.2704 822.105C42.8961 812.951 35.0207 799.538 26.5416 799.772C24.7871 799.821 23.1576 800.71 22.0045 802.011C20.5835 803.613 20.1834 805.714 20.3949 807.798C21.1348 815.09 28.1061 821.247 33.529 825.419C36.8291 827.959 40.313 830.413 43.862 832.594C45.0828 833.344 46.7351 834.283 48.6304 835.36L48.6312 835.361C56.8695 840.044 69.6983 847.336 71.6431 853.053C72.8693 853.885 74.3059 854.702 75.7673 855L74.8172 853.193L75.0153 852.744C75.5962 853.153 75.7377 853.208 76.3987 853.334L76.7265 852.915C76.307 851.787 75.9758 850.644 75.6425 849.488C75.8464 848.605 76.179 848.397 76.7749 848.026C76.9171 847.937 77.0742 847.839 77.2482 847.72L76.4684 845.821C71.599 834.943 67.4947 823.157 65.3888 811.405C63.2566 799.504 63.2932 786.722 64.9472 774.754C67.5216 756.129 76.3256 730.707 87.1651 715.191C94.952 703.905 105.442 693.91 118.072 688.397C111.136 701.049 108.227 713.945 112.431 728.136C112.642 728.853 112.872 729.564 113.119 730.269C113.367 730.974 113.631 731.673 113.914 732.365C114.196 733.057 114.495 733.741 114.811 734.419C115.128 735.095 115.461 735.764 115.811 736.424C116.161 737.085 116.527 737.736 116.909 738.378C117.292 739.02 117.69 739.652 118.104 740.274C118.518 740.896 118.947 741.507 119.392 742.107C119.837 742.708 120.296 743.297 120.77 743.874C121.244 744.452 121.732 745.017 122.235 745.57C122.737 746.123 123.253 746.663 123.782 747.191C124.311 747.718 124.853 748.232 125.409 748.732C125.964 749.232 126.531 749.718 127.11 750.189C127.689 750.661 128.28 751.118 128.882 751.56C129.484 752.002 130.097 752.429 130.721 752.84C131.344 753.251 131.978 753.647 132.622 754.027C133.265 754.406 133.917 754.769 134.578 755.117C140.894 758.464 152.712 761.3 159.712 759.217C159.777 759.198 159.836 759.166 159.896 759.134C159.927 759.118 159.957 759.102 159.988 759.087C164.371 758.79 170.8 756.561 174.454 754.157C168.837 755.963 163.381 757.045 157.564 757.953C148.852 758.078 140.595 756.012 133.065 751.588C132.462 751.238 131.867 750.873 131.282 750.494C130.697 750.115 130.121 749.721 129.555 749.313C128.989 748.905 128.434 748.483 127.889 748.047C127.345 747.611 126.811 747.162 126.289 746.7C125.767 746.237 125.256 745.762 124.757 745.274C124.259 744.786 123.772 744.286 123.299 743.774C122.825 743.262 122.364 742.738 121.917 742.203C121.469 741.668 121.035 741.122 120.614 740.565C120.194 740.009 119.788 739.442 119.395 738.864C119.003 738.288 118.626 737.701 118.263 737.105C117.899 736.509 117.551 735.904 117.219 735.291C116.886 734.678 116.568 734.057 116.267 733.428C115.964 732.798 115.678 732.162 115.408 731.519C115.138 730.875 114.884 730.226 114.646 729.57C114.408 728.914 114.187 728.252 113.982 727.585C113.777 726.917 113.589 726.245 113.418 725.569C110.016 711.915 113.098 700.956 120.191 689.224C122.542 686.235 125.232 685.583 128.879 685.148C143.402 683.417 163.14 683.334 175.192 692.834C178.68 695.585 181.341 699.328 181.834 703.835C182.391 708.928 180.688 714.537 177.464 718.509C174.456 722.216 169.873 724.335 165.157 724.725C161.147 725.056 157.176 723.819 154.165 721.116C153.547 720.562 152.967 719.954 152.393 719.353L152.158 719.106C153.71 722.553 155.608 724.991 159.262 726.428C163.968 728.279 169.518 727.419 174.018 725.364C175.689 724.581 177.249 723.619 178.699 722.478L179.915 721.203C180.193 720.857 180.472 720.51 180.752 720.162L180.757 720.157L180.768 720.143C182.88 717.519 185.045 714.829 186.838 712.007C190.415 706.377 192.149 699.609 190.618 693.019C189.296 687.326 185.616 683.044 180.697 680.086C167.966 672.43 151.733 673.192 137.868 676.717C142.851 674.018 148.626 672.366 154.119 671.08C164.34 668.689 176.367 669.384 185.44 675.121C192.801 679.775 196.412 686.945 198.299 695.219C199.711 703.974 198.364 712.101 193.429 719.565C193.239 719.824 193.05 720.085 192.861 720.347L192.861 720.348C192.339 721.069 191.816 721.793 191.258 722.482C190.621 723.14 189.96 723.774 189.276 724.383C188.591 724.993 187.886 725.576 187.158 726.133C186.43 726.689 185.683 727.218 184.915 727.719C184.148 728.22 183.364 728.692 182.562 729.134C181.759 729.577 180.942 729.989 180.109 730.371C179.277 730.752 178.431 731.102 177.572 731.421C176.713 731.739 175.844 732.026 174.963 732.28C174.083 732.534 173.195 732.754 172.298 732.942C165.776 734.245 159.149 733.227 153.61 729.439C148.419 725.889 144.16 719.718 143.071 713.479C142.387 709.559 143.395 705.672 145.8 702.51C147.787 699.898 150.997 697.588 154.323 697.176C156.44 696.914 158.505 697.528 160.173 698.854C162.314 700.558 163.543 703.207 163.723 705.912C163.955 709.405 162.514 711.751 160.317 714.294L160.418 714.422C161.206 714.223 161.474 713.962 162.043 713.407L162.055 713.396C164.021 711.483 164.956 708.792 164.995 706.08C165.038 703.144 164.016 700.161 161.89 698.089C159.872 696.121 157.31 695.488 154.548 695.634C150.822 695.831 147.551 697.538 145.143 700.371C142.069 703.987 140.281 708.832 140.769 713.591C141.417 719.91 145.052 726.63 150.01 730.6C156.068 735.452 163.252 737.336 170.891 736.437C171.465 736.372 172.038 736.292 172.608 736.199C173.179 736.105 173.746 735.997 174.311 735.874C174.876 735.752 175.438 735.616 175.996 735.466C176.554 735.316 177.108 735.151 177.658 734.973C178.208 734.795 178.753 734.604 179.294 734.399C179.834 734.193 180.369 733.975 180.898 733.743C181.427 733.51 181.951 733.265 182.468 733.007C182.986 732.749 183.496 732.478 184 732.194C184.503 731.91 185 731.614 185.489 731.306C185.977 730.997 186.458 730.676 186.931 730.344C187.404 730.011 187.868 729.666 188.324 729.311C188.779 728.955 189.226 728.588 189.663 728.21C190.101 727.831 190.528 727.442 190.946 727.043C191.364 726.643 191.772 726.233 192.169 725.814C192.567 725.394 192.954 724.964 193.329 724.524C193.705 724.085 194.07 723.637 194.424 723.179C200.929 714.897 202.727 705.777 201.487 695.489C199.886 686.96 195.821 679 188.562 673.955C178.886 667.231 164.376 665.912 153.06 668.012C148.479 668.863 144.287 670.651 140.086 672.443C137.266 673.646 134.442 674.851 131.495 675.774C143.462 665.933 157.399 659.085 173.204 660.695C183.392 661.732 193.445 666.527 199.892 674.619C206.882 683.394 209.608 694.527 208.235 705.602C206.869 716.624 200.644 727.185 191.906 733.983C183.436 740.572 171.091 743.722 160.488 742.276C152.943 741.247 144.76 737.57 140.116 731.331C136.043 725.858 134.771 718.555 135.824 711.892C135.962 711.016 136.149 710.15 136.385 709.296C136.621 708.44 136.904 707.601 137.235 706.779C137.566 705.956 137.942 705.154 138.364 704.374C138.786 703.594 139.25 702.84 139.757 702.112C140.822 700.915 141.906 699.769 143.098 698.696C145.933 696.142 151.217 691.904 155.637 690.765C155.998 690.698 156.356 690.644 156.708 690.602C157.03 690.564 157.352 690.528 157.675 690.494L157.664 690.687L158.037 690.484C157.283 690.445 156.476 690.549 155.637 690.765C149.563 691.885 142.359 696.382 138.674 701.039C137.704 702.284 136.87 703.525 136.153 704.929C132.943 711.217 132.904 719.335 135.088 725.954C137.472 733.176 142.992 738.51 149.697 741.851C159.907 746.938 170.735 746.704 181.359 743.033C192.844 739.065 201.324 730.693 206.533 719.773C211.611 709.128 212.509 695.968 208.457 684.851C204.653 674.416 197.141 666.219 187.042 661.616C175.457 656.337 162.016 656.633 150.235 661.084C142.165 664.133 134.767 668.596 128.915 675.019C128.247 675.753 127.59 676.528 126.927 677.309C125.314 679.213 123.668 681.155 121.746 682.633C120.037 683.948 117.941 684.695 115.864 685.435L115.863 685.435C114.778 685.822 113.698 686.207 112.681 686.67C109.246 688.233 105.854 690.58 102.842 692.849C87.1734 704.655 76.563 722.196 70.3362 740.578C69.5679 742.847 68.8694 745.185 68.1672 747.535C66.7757 752.192 65.37 756.897 63.3788 761.202C63.3439 761.277 63.3079 761.352 63.2718 761.427C63.2522 761.467 63.2326 761.508 63.2132 761.549C64.0049 758.229 64.4126 754.82 64.8193 751.418C65.0034 749.878 65.1874 748.34 65.4067 746.812C66.4162 739.771 67.8653 733.026 69.8525 726.195C79.5673 692.809 96.8288 662.891 125.463 642.332C131.945 637.678 138.957 633.824 145.94 629.985L146.589 629.628C146.944 628.948 147.317 628.676 147.953 628.285C152.019 625.785 156.371 623.63 160.689 621.492C162.211 620.738 163.73 619.986 165.23 619.222C172.968 615.281 180.717 611.098 188.176 606.649C190.317 605.372 192.302 603.886 194.291 602.396C194.751 602.052 195.21 601.708 195.672 601.366C196.083 601.062 196.521 600.773 196.962 600.482C197.97 599.815 198.996 599.137 199.756 598.243C199.815 598.174 199.868 598.109 199.917 598.049L199.918 598.048C200.145 597.77 200.299 597.582 200.695 597.381C200.904 597.275 201.13 597.181 201.355 597.086C201.523 597.016 201.69 596.945 201.85 596.87C203.267 595.466 203.914 594.4 204.147 592.415L203.654 591.953C202.504 592.359 201.435 593.192 200.367 594.024C199.59 594.629 198.814 595.234 198.007 595.674C197.974 595.692 197.941 595.71 197.907 595.727C197.871 595.746 197.835 595.765 197.799 595.784L197.773 595.798C197.747 595.812 197.721 595.825 197.694 595.839C186.761 603.576 174.886 609.485 162.991 615.405C157.105 618.334 151.215 621.266 145.432 624.422C108.175 644.755 86.4371 667.164 71.6542 707.421C67.4733 718.808 63.9315 730.589 61.8919 742.562C60.1101 753.023 59.8992 763.566 59.688 774.125C59.5964 778.708 59.5046 783.294 59.2844 787.877C53.8631 760.849 55.9219 728.556 62.3169 701.856C63.5092 696.879 65.0303 692.009 66.5529 687.135C67.2208 684.997 67.8889 682.858 68.5298 680.708C68.9342 679.734 69.3429 678.761 69.7518 677.787C76.1613 662.526 75.8815 651.41 78.0519 643.691C78.4027 642.444 78.7373 641.254 78.9435 640.214C81.1861 628.915 80.8811 616.588 77.7001 605.493C74.8648 595.6 69.9781 587.413 60.7264 582.408C54.4925 579.035 47.5949 577.987 40.7775 580.073C34.4269 582.017 29.4162 585.952 26.3344 591.871C23.2351 597.823 21.978 605.615 24.0318 612.09C26.0879 618.572 31.0416 624.128 37.1525 627.074C37.3561 627.17 37.5619 627.261 37.77 627.346C37.9781 627.432 38.1882 627.513 38.4003 627.588C38.6124 627.663 38.8262 627.733 39.0418 627.798C39.2573 627.862 39.4744 627.922 39.6929 627.976C39.9114 628.03 40.1311 628.078 40.352 628.121C40.5729 628.164 40.7947 628.202 41.0175 628.234C41.2403 628.266 41.4637 628.292 41.6878 628.313C41.9119 628.334 42.1363 628.349 42.3612 628.359C42.586 628.368 42.8109 628.373 43.036 628.371C43.261 628.37 43.4859 628.363 43.7106 628.35C43.9353 628.338 44.1596 628.319 44.3834 628.296C44.6072 628.272 44.8302 628.243 45.0525 628.208C45.2749 628.173 45.4962 628.133 45.7165 628.087C45.9369 628.041 46.156 627.99 46.3738 627.933C46.5916 627.877 46.8078 627.815 47.0225 627.747C47.2373 627.679 47.4502 627.607 47.6613 627.529C51.6878 626.085 55.1143 622.758 56.7782 618.824C57.9122 616.143 58.3015 612.401 57.148 609.663ZM28.6505 803.257C27.9884 803.046 27.342 802.894 26.6561 802.79C25.0343 803.876 24.3 804.663 23.9518 806.625C23.4214 809.615 25.3307 812.491 27.0401 814.782C32.6089 822.247 39.157 826.437 46.2116 830.951C48.4177 832.362 50.6734 833.805 52.9641 835.39L54.035 835.879L54.2343 835.493C53.0418 833.249 51.4286 831.177 49.8217 829.113C48.7674 827.758 47.7157 826.407 46.7872 825.014C45.6833 823.356 44.5885 821.44 43.446 819.44C39.6965 812.877 35.4335 805.416 28.6505 803.257Z" fill="#B83BC8"/>
<path fill-rule="evenodd" clip-rule="evenodd" d="M359.635 381.632C340.028 381.358 319.69 385.543 305.257 399.631C306.633 398.781 308.046 398 309.498 397.287C319.704 392.198 330.943 388.022 342.364 386.936C346.941 386.521 351.519 386.505 356.099 386.889C364.231 387.594 372.344 389.085 380.416 390.568C383.297 391.097 386.173 391.626 389.042 392.117C390.279 392.329 391.515 392.539 392.749 392.748C402.569 394.416 412.312 396.071 421.988 398.58C422.907 398.818 423.822 399.001 424.735 399.184C426.123 399.463 427.505 399.74 428.884 400.206C428.18 401.035 426.348 400.736 425.331 400.529C411.473 397.703 392.725 397.754 378.956 400.397C356.2 404.766 339.706 415.444 326.707 434.521C345.494 421.786 376.722 414.866 399.113 411.94C416.833 409.895 431.173 409.937 448.844 410.195C448.781 410.215 448.717 410.235 448.653 410.254C448.523 410.295 448.392 410.335 448.261 410.374C445.628 411.151 442.935 411.649 440.241 412.147C437.95 412.571 435.659 412.994 433.403 413.59C420.4 417.022 405.674 424.518 396.312 434.313C418.822 425.724 442.133 418.177 466.01 414.605C466.011 414.274 466.01 413.944 466.009 413.613C466.007 412.324 466.005 411.034 466.072 409.748C458.193 405.706 450.13 402.075 441.881 398.855C433.633 395.635 425.242 392.842 416.709 390.477C398.537 385.198 378.565 381.896 359.635 381.632Z" fill="#B83BC8"/>
<path fill-rule="evenodd" clip-rule="evenodd" d="M55.7208 422.075C52.7215 448.622 42.0674 474.05 27.8636 496.468C28.6646 496.472 29.4998 496.452 30.3468 496.432C32.2541 496.386 34.2218 496.339 35.9969 496.565C38.7067 492.183 41.5429 488.132 44.9381 484.236C59.9008 467.068 81.2588 452.521 103.817 447.889C108.634 446.9 113.71 446.571 118.673 446.248C119.694 446.182 120.709 446.116 121.717 446.045C131.918 446.73 141.765 447.736 151.492 451.16C166.431 455.406 178.635 464.64 188.635 476.327C190.471 478.29 192.028 480.498 193.578 482.698C193.763 482.96 193.947 483.222 194.132 483.483C194.296 483.714 194.46 483.944 194.624 484.174C193.836 478.638 192.527 474.282 189.542 469.526C187.288 465.432 183.599 461.76 180.274 458.451L179.754 457.933C173.921 451.491 164.772 446.572 156.924 443.078C155.133 442.21 153.241 441.622 151.347 441.032L151.262 441.006C150.946 440.907 150.63 440.809 150.314 440.709C141.042 437.405 130.871 436.705 121.103 436.641C92.6688 437.604 70.4238 450.11 49.6712 468.644C50.8721 465.005 52.2661 461.452 53.6601 457.899C55.3526 453.585 57.0452 449.27 58.3928 444.802C67.1538 415.748 67.4168 383.654 53.5055 356.143C45.1051 339.529 33.9125 328.04 17 320C17.1013 320.132 17.201 320.265 17.304 320.396C20.0205 323.846 23.1497 326.948 26.2887 330.059C29.4991 333.241 32.7197 336.433 35.5191 340.018C53.1047 362.537 58.8788 394.124 55.7208 422.075ZM119.048 438.091C118.996 438.265 118.941 438.438 118.889 438.612C118.863 438.698 118.837 438.785 118.814 438.873C118.861 438.699 118.914 438.527 118.967 438.355C118.982 438.306 118.997 438.257 119.012 438.209C119.024 438.17 119.036 438.13 119.048 438.091Z" fill="#B83BC8"/>
<path d="M474.059 637.276C453.189 633.413 434.741 625.364 418.241 611.914C415.68 609.827 413.185 607.694 410.694 605.565L410.693 605.564C406.238 601.756 401.798 597.961 397.016 594.455C394.144 592.35 391.15 590.309 388.135 588.253C379.782 582.558 371.274 576.757 364.796 569.217C352.071 554.404 340.439 534.128 342.172 513.922C343.074 503.414 346.474 491.702 354.914 484.792C355.308 484.473 355.71 484.163 356.119 483.864C356.528 483.565 356.944 483.276 357.368 482.998C357.791 482.719 358.222 482.452 358.659 482.195C359.096 481.938 359.54 481.693 359.989 481.458C360.438 481.223 360.893 481 361.353 480.788C361.814 480.576 362.279 480.376 362.75 480.187C363.221 479.998 363.696 479.821 364.175 479.656C364.654 479.491 365.138 479.339 365.625 479.197C366.112 479.057 366.602 478.928 367.095 478.812C367.588 478.695 368.084 478.592 368.583 478.5C369.082 478.409 369.582 478.33 370.085 478.263C370.588 478.197 371.092 478.142 371.597 478.101C372.102 478.06 372.608 478.031 373.115 478.015C373.622 477.999 374.128 477.996 374.635 478.005C375.142 478.014 375.648 478.036 376.154 478.071C376.66 478.106 377.165 478.153 377.668 478.213C383.543 478.883 388.982 481.571 392.619 486.306C395.543 490.111 397.466 494.55 396.657 499.427C396.26 501.823 395.065 502.789 393.156 504.08L392.558 503.877C392.677 503.596 392.805 503.308 392.935 503.013C393.523 501.683 394.165 500.231 394.3 498.854C394.337 498.443 394.353 498.031 394.35 497.618C394.347 497.205 394.323 496.793 394.28 496.382C394.237 495.972 394.173 495.564 394.09 495.159C394.007 494.755 393.905 494.356 393.784 493.961C393.662 493.567 393.521 493.179 393.362 492.797C393.203 492.417 393.025 492.044 392.83 491.68C392.635 491.316 392.422 490.963 392.192 490.62C391.963 490.277 391.717 489.945 391.455 489.626C388.056 485.543 382.311 483.384 377.116 483.079C370.645 482.699 364.434 485.245 359.724 489.629C352.014 496.805 348.621 508.604 348.469 518.873C348.241 534.301 360.371 550.74 370.706 561.131C395.777 586.337 438.518 603.732 474.059 603.936V609.139C448.115 607.296 429.75 601.813 406.122 591.158C406.695 591.632 407.267 592.11 407.841 592.589C410.948 595.184 414.086 597.805 417.483 599.979C434.146 610.647 454.789 615.24 474.059 618.345V623.394L473.836 623.352C460.929 620.879 436.017 616.106 425.507 609.561C425.422 609.509 425.351 609.464 425.29 609.425C425.089 609.299 425.001 609.243 424.907 609.205C424.834 609.175 424.757 609.155 424.621 609.12C424.518 609.093 424.381 609.058 424.187 609.003L424.046 609.465C430.593 617.276 463.679 631.473 474.059 633.491L474.059 637.276Z" fill="#B83BC8"/>
<path d="M347.908 725.067C342.389 746.652 346.998 763.018 358.022 781.809C349.146 773.799 338.138 768.552 327.151 764.124L323.611 762.73C300.216 755.805 276.37 756.036 254.542 768.003C242.175 774.783 231.852 785.996 227.976 799.769C226.789 803.989 226.035 808.487 226 812.876L228.217 813.141C228.493 813.084 228.725 813.048 228.929 813.017C229.681 812.901 230.035 812.847 230.719 812.01L231.398 809.383C235.298 794.627 243.484 783.315 256.839 775.667C276.319 764.51 299.632 765.488 320.7 771.224L324.932 772.63C344.434 781.04 370.74 795.918 385.345 811.818L385.604 811.79C385.709 811.865 385.81 811.948 385.915 812.022C385.965 812.058 386.016 812.091 386.069 812.122C388.471 813.486 392.495 812.794 394.96 811.927L388.155 805.55C386.416 803.024 383.353 800.43 380.791 798.261C380.348 797.886 379.921 797.524 379.518 797.178C369.11 788.227 363.684 783.389 357.468 770.808C345.271 746.123 350.98 719.773 368.141 698.896C370.977 695.446 373.658 692.653 376.163 690.043C382.328 683.622 387.423 678.314 391.118 667.075C394.424 657.017 394.193 644.828 389.045 635.361C385.692 629.196 379.015 623.914 372.343 621.97C366.712 620.33 360.441 620.695 355.296 623.644C348.15 627.74 346.211 634.978 344.243 642.327C344.156 642.652 344.069 642.978 343.981 643.303L344.478 643.236L344.259 643.783L343.675 643.813L343.737 644.843C344.361 644.326 344.765 642.58 345.052 641.336C345.127 641.012 345.194 640.723 345.255 640.498C346.405 636.246 349.726 631.73 352.89 628.677C356.4 625.29 360.947 623.098 365.901 623.404C370.649 623.697 377.538 626.772 380.698 630.416C380.882 630.628 381.057 630.849 381.239 631.063C382.522 632.573 383.705 634.06 384.692 635.787C392.964 650.255 388.373 666.508 378.497 678.794C375.769 682.186 372.739 685.342 369.708 688.498C365.869 692.495 362.029 696.494 358.8 700.978C353.559 708.256 350.123 716.403 347.908 725.067Z" fill="#B83BC8"/>
<path fill-rule="evenodd" clip-rule="evenodd" d="M311.391 185.661C311.005 184.908 310.502 184.417 309.768 184C309.743 184.031 309.718 184.063 309.692 184.094C309.652 184.142 309.612 184.191 309.574 184.241C308.083 186.167 307.022 188.469 305.955 190.786C305.032 192.789 304.105 194.802 302.89 196.593C297.43 204.644 290.005 212.185 281.403 216.858C280.084 217.574 278.711 218.23 277.336 218.887C275.164 219.926 272.984 220.967 271 222.256C272.402 222.796 273.825 223.295 275.25 223.794C277.7 224.652 280.153 225.512 282.503 226.584C292.285 231.048 299.791 238.816 304.165 248.622C305.941 252.605 306.806 256.674 307.611 260.931C307.667 260.971 307.721 261.01 307.774 261.047C308.429 261.519 308.794 261.782 309.697 261.8C310.774 261.004 310.922 260.067 311.116 258.8C312.744 248.205 319.362 237.098 328.067 230.728C330.178 229.184 332.514 227.855 334.958 226.918C335.924 226.549 337.099 226.307 338.306 226.058C340.653 225.574 343.124 225.064 344.426 223.541C344.402 223.418 344.388 223.319 344.377 223.236C344.335 222.93 344.322 222.832 343.923 222.556C342.954 221.886 341.758 221.407 340.568 220.93C339.721 220.591 338.878 220.254 338.122 219.849C337.322 219.424 336.534 218.979 335.757 218.514C334.979 218.049 334.214 217.566 333.46 217.063C332.707 216.56 331.966 216.039 331.239 215.5C330.511 214.96 329.797 214.403 329.097 213.828C328.398 213.254 327.713 212.662 327.042 212.053C326.372 211.444 325.716 210.819 325.077 210.177C324.437 209.536 323.814 208.879 323.207 208.207C322.6 207.534 322.01 206.847 321.438 206.146C320.56 205.053 319.729 203.925 318.947 202.763C318.165 201.6 317.433 200.406 316.751 199.181C316.07 197.956 315.441 196.705 314.865 195.427C314.29 194.149 313.77 192.849 313.304 191.527C313.046 190.804 312.839 190.037 312.632 189.267C312.295 188.019 311.956 186.761 311.391 185.661ZM311.841 197.264C311.173 195.575 310.466 193.788 309.511 192.835C302.43 204.487 292.214 215.557 279.924 221.767C294.177 227.604 302.567 235.685 308.728 249.886L309.176 250.924L309.474 250.802L309.647 250.272C313.056 239.986 321.401 230.015 331.136 225.206C332.618 224.474 334.145 223.817 335.665 223.164C335.838 223.09 336.01 223.016 336.183 222.941C325.983 217.423 318.655 210.105 313.019 199.947C312.611 199.212 312.233 198.255 311.841 197.264Z" fill="#B83BC8"/>
<path fill-rule="evenodd" clip-rule="evenodd" d="M109.367 69.7116C109.436 69.1266 109.452 69.0073 109.796 68.5373C111.335 67.6982 114.316 67.9673 116.011 68.3286C119.041 68.9752 121.579 70.6454 123.258 73.2853C123.371 73.4674 123.48 73.6522 123.585 73.8397C123.689 74.0271 123.789 74.217 123.885 74.4093C123.98 74.6016 124.071 74.7961 124.157 74.9927C124.242 75.1894 124.323 75.3882 124.399 75.5891C124.475 75.7897 124.546 75.9921 124.612 76.1964C124.679 76.4006 124.74 76.6064 124.796 76.8135C124.852 77.0207 124.903 77.2291 124.949 77.4387C124.995 77.6486 125.036 77.8593 125.071 78.0708C125.107 78.2826 125.137 78.4951 125.163 78.7082C125.188 78.9214 125.208 79.135 125.223 79.3491C125.237 79.5631 125.247 79.7774 125.251 79.9921C125.256 80.2068 125.255 80.4213 125.249 80.6358C125.242 80.8503 125.231 81.0646 125.214 81.2786C125.197 81.4926 125.176 81.706 125.148 81.9188C125.121 82.1319 125.089 82.344 125.051 82.5552C125.014 82.7665 124.971 82.9766 124.923 83.1858C124.09 86.7139 121.779 90.3161 118.682 92.2178C117.056 92.11 115.433 91.7764 113.94 91.1071C110.521 89.5745 107.548 86.0631 106.229 82.5893C104.955 79.2332 105.102 75.1458 106.627 71.8911C107.081 70.9234 107.728 69.7308 108.76 69.3535L109.367 69.7116ZM109.367 69.7116C109.612 71.6462 109.89 73.4597 110.745 75.2306C111.502 76.7972 112.53 78.0581 114.223 78.6563C114.13 79.0826 114.041 79.5109 113.983 79.9437C113.876 80.7441 113.907 81.6281 114.497 82.2524C115.282 83.0811 116.629 83.1542 117.764 83.2158C117.864 83.2212 117.963 83.2265 118.06 83.2323C118.126 83.2363 118.191 83.2404 118.255 83.245C117.491 84.317 116.991 85.392 116.499 86.6033C116.728 86.4074 116.967 86.1554 117.218 85.891C117.88 85.1946 118.624 84.412 119.459 84.3405C119.682 84.3214 119.698 84.3411 119.791 84.4576L119.792 84.4585C119.825 84.5006 119.869 84.5552 119.936 84.6251C120.096 85.9623 119.702 87.3249 119.332 88.6054L119.294 88.7361L119.265 88.735C118.962 88.7241 118.661 88.7133 118.36 88.6748C116.039 88.3787 114.271 87.0304 112.907 85.1818C109.571 80.6607 107.959 74.9008 108.76 69.3535L109.367 69.7116Z" fill="#B83BC8"/>
<path fill-rule="evenodd" clip-rule="evenodd" d="M109.966 62.9688C109.803 63.0171 109.641 63.0741 109.481 63.1337C107.545 63.7995 105.711 64.7777 103.903 65.7421C103.754 65.8218 103.604 65.9014 103.455 65.9807C102.786 66.3355 102.125 66.7035 101.47 67.0844C100.815 67.4653 100.169 67.8589 99.5294 68.2653C98.8902 68.6717 98.2593 69.0904 97.6367 69.5216C97.014 69.9528 96.4 70.396 95.7945 70.8513C95.1893 71.3066 94.5932 71.7737 94.0064 72.2527C93.4192 72.7314 92.8418 73.2215 92.274 73.7228C91.7061 74.2245 91.1484 74.7371 90.6008 75.2606C90.053 75.7839 89.5156 76.3179 88.9887 76.8626C88.4621 77.4073 87.9463 77.962 87.4412 78.5269C86.9362 79.0918 86.4424 79.6664 85.9597 80.2508C85.4771 80.8352 85.0063 81.4288 84.5473 82.0319C84.0879 82.6347 83.6406 83.2463 83.2053 83.8666C82.7701 84.4872 82.3471 85.1161 81.9364 85.7533C81.5258 86.3904 81.1278 87.0354 80.7422 87.6882C80.357 88.3412 79.9845 89.0014 79.6248 89.6689C79.2653 90.3363 78.9191 91.0106 78.586 91.6918C78.1262 92.6429 77.7246 93.6183 77.3813 94.6178C92.2266 97.4839 107.877 99.164 122.633 94.7462C133.764 91.6364 143.378 84.5797 150.653 75.7206C152.35 73.6552 154.117 71.3832 155.408 69.0422L155.536 68.8064C154.025 67.9593 152.281 67.389 150.581 66.8328C149.948 66.6256 149.321 66.4205 148.714 66.2037C136.697 61.9102 122.48 59.2777 109.966 62.9688ZM125.579 65.0757C120.614 64.5421 114.043 65 109.336 66.7679C105.146 68.2363 101.172 70.4867 99.1443 74.6305C97.5507 77.887 97.4228 81.7407 98.6097 85.1523C99.7888 88.5408 102.261 91.1218 105.478 92.6465C110.777 95.1582 115.524 93.8919 120.891 92.3392C124.936 90.6933 129.193 87.9256 130.922 83.7177C132.403 80.1149 132.284 75.6422 130.783 72.0632C129.631 69.3153 127.658 67.154 125.579 65.0757ZM151.783 70.3172C145.431 68.1209 134.833 64.5537 128.136 64.6142C128.351 64.7753 128.561 64.9416 128.767 65.113C128.973 65.2846 129.175 65.4611 129.372 65.6426C129.57 65.8243 129.763 66.0106 129.951 66.2017C130.14 66.3927 130.323 66.5882 130.502 66.7882C130.681 66.9882 130.855 67.1926 131.023 67.4014C131.192 67.6102 131.355 67.8229 131.513 68.0395C131.671 68.2564 131.824 68.4769 131.971 68.7011C132.119 68.9256 132.26 69.1535 132.396 69.3847C132.533 69.6161 132.663 69.8507 132.787 70.0887C132.912 70.3263 133.031 70.5669 133.143 70.8106C133.256 71.0542 133.362 71.3005 133.463 71.5494C133.563 71.7983 133.658 72.0495 133.746 72.3029C133.834 72.5564 133.916 72.812 133.992 73.0698C134.067 73.3272 134.136 73.5865 134.199 73.8476C134.262 74.1086 134.318 74.371 134.368 74.6346C134.418 74.8984 134.461 75.1633 134.498 75.4292C134.535 75.675 134.566 75.9216 134.591 76.169C134.616 76.4161 134.634 76.6639 134.647 76.9123C134.66 77.1604 134.666 77.4088 134.667 77.6575C134.667 77.9059 134.661 78.1543 134.649 78.4027C134.637 78.6508 134.619 78.8986 134.595 79.1461C134.571 79.3934 134.54 79.64 134.504 79.8859C134.468 80.1315 134.425 80.3762 134.377 80.6199C134.328 80.8636 134.274 81.1059 134.213 81.3469C134.153 81.5881 134.086 81.8274 134.014 82.065C133.942 82.3027 133.863 82.5383 133.779 82.7721C133.696 83.006 133.606 83.2376 133.51 83.4669C133.415 83.6961 133.314 83.9229 133.207 84.1473C133.101 84.3715 132.989 84.5929 132.871 84.8116C132.753 85.0304 132.63 85.246 132.502 85.4585C132.374 85.6713 132.24 85.8806 132.102 86.0864C131.963 86.2923 131.819 86.4947 131.671 86.6936C131.103 87.4483 130.447 88.1297 129.77 88.7866C134.097 86.5706 138.096 84.2423 141.773 81.0098C145.144 77.9621 149.3 74.1042 151.783 70.3172ZM96.0764 76.9572C96.4611 75.8131 97.0775 73.9792 96.8159 73.8557C96.0121 74.518 95.2243 75.1992 94.4526 75.8993C93.6811 76.5992 92.9267 77.3172 92.1892 78.0531C91.4519 78.7893 90.7323 79.5424 90.0307 80.3125C89.3291 81.0828 88.6462 81.8695 87.9822 82.6725C87.3178 83.4754 86.673 84.2936 86.0478 85.1272C85.4224 85.961 84.8172 86.8092 84.2321 87.6716C83.647 88.5343 83.0827 89.4104 82.5391 90.2998C81.9958 91.1894 81.4738 92.0914 80.9731 93.0058C83.9695 93.5882 87.0282 93.9287 90.0742 94.2678L90.0757 94.2679L90.077 94.2681C91.0389 94.3752 91.9994 94.4821 92.9564 94.5965C97.4225 94.9652 101.863 94.9966 106.342 94.9403C102.113 93.2557 98.4955 90.8623 96.6193 86.5704C95.4277 83.8446 95.0665 80.6798 95.8105 77.7814C95.8463 77.642 95.9481 77.3391 96.0755 76.9602L96.0764 76.9572Z" fill="#B83BC8"/>
<path fill-rule="evenodd" clip-rule="evenodd" d="M181.769 159.691C180.749 159.272 179.797 159.108 178.707 159C175.653 159.569 173.3 160.534 171.514 163.207C170.06 165.384 169.669 168.212 170.273 170.739C170.782 172.869 172.062 174.702 173.932 175.852C175.569 176.858 177.256 176.998 179.128 177C182.154 176.086 184.46 174.876 185.971 171.957C186.119 171.669 186.251 171.373 186.368 171.071C186.485 170.769 186.586 170.461 186.671 170.149C186.756 169.836 186.825 169.52 186.877 169.2C186.929 168.881 186.965 168.559 186.984 168.235C187.003 167.912 187.005 167.588 186.99 167.265C186.976 166.941 186.944 166.619 186.896 166.299C186.848 165.978 186.784 165.661 186.703 165.348C186.622 165.034 186.525 164.725 186.412 164.421C185.596 162.231 183.924 160.575 181.769 159.691ZM179.698 161.306C179.059 161.111 178.422 161.046 177.757 161.01C175.338 161.772 173.574 162.745 172.421 165.113C172.306 165.346 172.203 165.584 172.113 165.827C172.022 166.07 171.945 166.317 171.88 166.568C171.815 166.82 171.763 167.073 171.724 167.33C171.685 167.587 171.66 167.845 171.648 168.104C171.635 168.363 171.636 168.622 171.651 168.881C171.665 169.14 171.692 169.398 171.734 169.653C171.775 169.91 171.829 170.163 171.896 170.414C171.962 170.664 172.042 170.911 172.134 171.153C172.215 171.358 172.306 171.558 172.408 171.753C172.509 171.948 172.62 172.138 172.741 172.322C172.862 172.505 172.992 172.682 173.131 172.853C173.27 173.023 173.417 173.186 173.573 173.341C173.729 173.497 173.892 173.644 174.063 173.782C174.234 173.921 174.411 174.05 174.596 174.17C174.78 174.291 174.97 174.401 175.165 174.502C175.36 174.602 175.561 174.693 175.765 174.773C176.724 175.142 177.86 175.209 178.877 175.188C181.262 174.218 183.028 173.052 184.024 170.571C184.745 168.774 184.749 166.754 183.934 164.986C183.155 163.294 181.478 161.85 179.698 161.306Z" fill="#B83BC8"/>
<path fill-rule="evenodd" clip-rule="evenodd" d="M80.3251 337.366C79.7995 342.941 81.6771 348.194 84.989 352.613C84.9431 352.709 84.8949 352.804 84.8467 352.9C84.7434 353.105 84.6399 353.31 84.5571 353.522C88.0198 357.516 91.1798 361.103 96.1527 363.325C94.3099 364.059 92.574 364.738 90.6234 365.152L89.8293 364.768C89.6252 363.164 89.2437 362.186 88.4461 360.785C87.6866 360.001 87.1856 359.016 86.6894 358.041C86.0649 356.813 85.4478 355.6 84.332 354.82C83.7696 358.998 81.7757 362.516 79.0002 365.706C76.3023 367.825 73.3558 369.39 70.3405 370.992L70 371.173L77.1774 371.178C77.2522 371.203 77.3273 371.227 77.4025 371.252C77.5675 371.305 77.7327 371.359 77.895 371.419C86.2412 374.496 88.3927 379.786 90.8991 385.949C91.8397 388.261 92.8302 390.697 94.2169 393.184C94.7191 394.086 95.1309 394.742 96.1613 395C96.3639 393.904 95.9598 392.742 95.5688 391.618C95.3982 391.128 95.2301 390.645 95.1161 390.178C94.0935 385.994 94.1256 381.119 95.5244 377.053C98.1205 369.51 102.002 366.306 109 362.961C105.367 362.588 101.949 362.005 98.5688 360.576C88.3782 356.266 84.8884 347.484 81.1213 338.003C80.9887 337.67 80.8558 337.335 80.7222 337L80.3251 337.366ZM84.064 358.679C83.0322 361.973 81.8774 365.66 78.8143 367.492L78.6319 367.78C78.7212 367.804 78.8099 367.83 78.8986 367.857C79.0799 367.911 79.2621 367.966 79.4486 367.995C80.9803 368.237 84.8953 366.856 86.0143 365.83C85.2455 363.531 84.9479 361.118 84.6516 358.716L84.6513 358.714C84.5957 358.263 84.5403 357.814 84.4817 357.365C84.3421 357.791 84.2048 358.23 84.0651 358.675L84.064 358.679ZM98.1327 365.296C98.3028 365.273 98.4536 365.247 98.5924 365.223C99.1397 365.129 99.5017 365.067 100.138 365.338L99.2335 365.532L99.4246 365.932C96.3496 367.973 94.3169 372.87 92.9348 376.2L92.9292 376.213C92.0985 374.153 91.6425 371.799 91.2012 369.521L91.2009 369.52L91.2005 369.517C91.0462 368.721 90.8937 367.934 90.7276 367.172C93.1251 366.462 95.551 365.897 97.9856 365.33L98.1327 365.296ZM85.698 368.207L78.1731 369.894L77.7335 370.211L80.9681 371.108C82.5353 371.639 83.8059 372.55 85.1226 373.494C85.3059 373.625 85.4902 373.757 85.6763 373.889L85.698 368.207ZM91.1717 383.526C91.0509 379.514 90.7634 371.768 88.3367 368.519C87.0552 373.419 87.9744 378.215 90.5366 382.586C90.7945 383.026 90.8538 383.105 91.0605 383.378L91.1132 383.448L91.1717 383.526Z" fill="#B83BC8"/>
<path d="M147.15 579C148.926 581.342 149.229 585.102 151.11 587.627C153.037 590.213 156.056 590.546 159 591.002C152.893 597.597 150.748 600.822 149.763 610C148.913 608.893 148.379 607.242 147.801 605.961C145.434 600.717 143.246 597.47 138 594.801C144.489 590.102 145.522 586.63 147.15 579Z" fill="#B83BC8"/>
<path fill-rule="evenodd" clip-rule="evenodd" d="M279.128 350.287C280.853 350.833 282.737 351.005 284.619 351.176C286.066 351.308 287.511 351.44 288.88 351.741C289.893 351.964 290.475 352.111 291.072 352.992C290.543 353.868 290.01 354.113 289.225 354.475C289.055 354.552 288.874 354.636 288.679 354.732L287.986 353.709C286.718 355.871 280.532 358.72 276.431 360.609C275.383 361.092 274.471 361.512 273.812 361.841C273.964 362.319 274.108 362.812 274.253 363.309L274.253 363.312C274.64 364.64 275.037 366.001 275.625 367.199C275.833 367.938 276.222 368.985 276.663 370.17C277.872 373.423 279.469 377.716 278.757 379.515C277.47 379.941 276.326 379.363 275.168 378.778L274.996 378.691C274.956 378.671 274.915 378.65 274.875 378.63C272.511 377.453 270.181 376.198 267.854 374.945C267.441 374.722 267.028 374.5 266.614 374.278C265.942 373.915 265.27 373.545 264.598 373.174C262.948 372.264 261.292 371.351 259.603 370.544C257.641 371.57 255.722 372.764 253.8 373.961C250.996 375.705 248.185 377.455 245.223 378.695C245.166 378.724 245.11 378.753 245.054 378.783C244.97 378.827 244.887 378.871 244.805 378.915L244.8 378.917C243.853 379.42 243.004 379.87 241.855 379.764L241.4 379.211C241.248 375.166 243.59 369.01 245.49 364.015L245.49 364.014C246.07 362.489 246.609 361.072 247.023 359.857C246.44 359.317 245.839 358.767 245.227 358.207L245.194 358.176L245.192 358.174L245.191 358.174L245.19 358.173C240.725 354.086 235.693 349.48 232.633 344.535C236.94 344.289 241.891 344.882 246.608 345.448L246.609 345.448C248.643 345.692 250.633 345.931 252.51 346.095C255.597 339.459 259.067 333.123 262.761 326.808C263.281 328.252 263.708 329.741 264.133 331.224L264.134 331.227C264.299 331.802 264.463 332.377 264.633 332.947L266.491 338.209C266.628 338.674 266.782 339.244 266.955 339.881C267.822 343.084 269.143 347.958 270.996 349.412C272.669 349.157 274.761 349.538 276.71 349.893C277.558 350.048 278.38 350.197 279.128 350.287ZM268.029 373.527C271.134 375.081 274.297 376.507 277.518 377.805C275.719 372.629 274.149 367.385 272.808 362.072C269.289 365.03 265.45 367.829 261.24 369.725L261.523 369.893C263.663 371.164 265.792 372.428 268.029 373.527ZM272.062 361.514C272.363 360.455 272.134 359.721 271.844 358.794C271.776 358.574 271.703 358.343 271.634 358.094L273.029 359.22C273.216 359.521 273.431 359.727 273.677 359.961C273.707 359.99 273.737 360.02 273.769 360.05C276.187 359.671 278.808 358.146 281.432 356.618C283.566 355.376 285.702 354.132 287.734 353.504C283.901 351.974 279.122 351.393 274.704 350.856L274.703 350.856L274.698 350.855C273.383 350.695 272.1 350.539 270.884 350.363C270.907 352.085 271.457 353.753 272.009 355.423C272.424 356.68 272.839 357.938 273.029 359.22L271.634 358.094L270.927 356.045C270.622 355.145 270.374 354.234 270.127 353.323C269.792 352.088 269.457 350.854 268.976 349.647L268.929 349.641L268.928 349.641L268.924 349.641L268.921 349.641C263.649 349.015 258.395 348.392 253.165 347.469L251.382 351.874C251.213 352.269 251.031 352.681 250.843 353.106L250.842 353.107C249.88 355.282 248.774 357.783 248.61 359.977C251.239 361.734 253.773 363.866 256.275 365.971C257.529 367.027 258.776 368.075 260.022 369.067C260.892 368.531 261.782 367.996 262.678 367.457C265.69 365.647 268.78 363.79 271.482 361.672L272.062 361.514ZM248.214 361.153C247.84 362.269 247.291 363.718 246.686 365.311C245.087 369.526 243.104 374.754 242.969 377.503L243.473 377.919L244.193 377.806C246.7 375.856 250.19 374.002 253.513 372.237C255.216 371.332 256.876 370.451 258.337 369.591C254.946 366.798 251.572 363.985 248.214 361.153ZM262.443 330.955C264.534 336.729 266.566 342.523 268.541 348.336C263.779 347.33 258.982 346.527 254.152 345.926C255.808 341.551 259.195 334.26 262.443 330.955ZM249.181 354.195C250.275 351.627 251.446 348.876 251.643 347.426C249.623 347.287 247.6 347.123 245.576 346.959L245.574 346.959C242.327 346.696 239.077 346.433 235.836 346.27C236.183 346.681 236.528 347.096 236.873 347.511C237.976 348.838 239.084 350.169 240.278 351.405L247.429 358.586C247.783 357.478 248.465 355.876 249.181 354.195Z" fill="#B83BC8"/>
<path fill-rule="evenodd" clip-rule="evenodd" d="M309.398 529L313.636 539.002C313.968 539.83 314.294 540.664 314.62 541.498C315.35 543.361 316.08 545.228 316.884 547.052L322.332 546.579C323.236 546.294 324.289 546.165 325.305 546.041C325.76 545.985 326.207 545.931 326.629 545.863L332 544.756C331.8 544.959 331.593 545.168 331.38 545.383C327.582 549.22 321.87 554.989 321.326 560.348C321.648 560.892 322.081 561.564 322.564 562.314C324.443 565.229 327.083 569.326 326.904 571.694C326.105 572.277 326.077 572.271 325.142 572.086L325.13 572.083C323.148 571.691 321.156 570.724 319.124 569.738C317.248 568.827 315.338 567.9 313.368 567.391C311.265 568.235 309.198 569.927 307.162 571.595C304.684 573.624 302.251 575.616 299.851 576L299.08 575.665C298.883 575.016 298.715 574.44 298.619 573.766C299.012 572.399 299.221 570.969 299.429 569.552L299.429 569.55C299.485 569.169 299.541 568.789 299.6 568.411L301.349 560.507C299.859 559.39 298.301 558.342 296.747 557.298L296.747 557.298L296.742 557.295C296.095 556.86 295.449 556.426 294.809 555.987C294.449 555.76 293.985 555.488 293.463 555.182C291.137 553.817 287.655 551.774 287 549.987C289.172 549.628 291.354 549.392 293.54 549.157L293.544 549.156C296.094 548.881 298.65 548.605 301.203 548.132C301.999 547.895 302.67 547.629 303.404 547.241C305.092 544.788 305.684 542.064 306.299 539.236L306.301 539.228L306.302 539.224C306.39 538.816 306.479 538.407 306.572 537.996C306.762 537.338 306.947 536.673 307.133 536.007L307.133 536.006L307.134 536.001L307.135 535.999C307.792 533.633 308.457 531.243 309.398 529ZM300.745 573.742C300.747 572.467 300.958 571.181 301.167 569.91L301.169 569.898C301.23 569.524 301.291 569.151 301.347 568.78C301.959 565.971 302.422 563.155 302.863 560.315C300.822 557.983 298.379 556.286 295.798 554.611L291.042 551.426C294.606 550.642 298.264 550.127 301.883 549.618L302.57 549.521L304.188 549.212C305.932 547.894 306.758 544.102 307.358 541.351L307.358 541.349L307.359 541.345C307.491 540.737 307.613 540.18 307.731 539.711L309.604 533.257L312.649 540.385L312.877 540.947C313.931 543.551 314.975 546.127 316.364 548.581C316.596 548.564 316.829 548.548 317.061 548.531C318.927 548.398 320.789 548.265 322.643 548.003L326.81 547.624C326.489 548.08 326.078 548.631 325.619 549.246L325.618 549.247C323.301 552.352 319.743 557.118 320.241 559.92C320.265 560.058 320.297 560.196 320.328 560.333C320.344 560.404 320.361 560.476 320.376 560.548C321.194 563.561 322.699 566.184 324.221 568.838C324.749 569.758 325.279 570.681 325.783 571.626C321.526 568.974 318.055 567.123 313.118 566.107C310.514 566.902 307.81 569.018 305.506 570.822C303.511 572.384 301.816 573.711 300.745 573.742Z" fill="#B83BC8"/>
<path d="M282.541 4.74005L283.374 11.7419C283.649 14.4722 283.893 17.1707 284.519 19.8478C286.389 20.2509 288.25 20.6712 290.144 20.9459L293.876 21.679C291.48 23.5937 285.341 27.6541 285.002 30.7384C284.981 30.9323 284.974 31.1274 284.96 31.3218C284.883 35.1457 286.074 38.6706 286.844 42.3758C283.809 38.9729 281.255 36.47 277.208 34.3221C272.591 34.3765 266.494 38.3604 264.464 37.8299C264.889 36.3866 265.626 35.0165 266.257 33.651C267.509 31.3542 268.633 29.0138 269.743 26.6456C268.559 24.0889 266.863 21.9827 265.039 19.8616L261.705 15.8651C265.224 16.1055 268.758 16.6382 272.248 17.1459L273.738 17.2897C276.008 16.4269 278.028 11.9895 279.256 9.89799L282.541 4.74005Z" fill="#B83BC8"/>
<path d="M337.058 96.3773C339.85 97.949 341.977 99.147 342.904 99.6854C343.874 101.599 347.521 103.39 350.075 104.645C350.571 104.889 351.026 105.112 351.412 105.313L351.307 105.623C350.689 105.512 349.943 105.355 349.117 105.181C345.112 104.339 339.216 103.099 336.759 104.777L336.748 105.483C341.045 107.449 351.576 109.627 356.498 110.332C356.063 110.534 355.626 110.736 355.188 110.938C350.818 112.955 346.307 115.037 342.544 118.034L342.69 118.528C344.713 118.283 348.481 116.85 352.053 115.492C355.778 114.075 359.291 112.739 360.392 112.914C360.621 114.253 358.612 121.634 356.356 129.921C353.663 139.814 350.618 150.999 350.607 154.748C350.604 155.771 350.564 156.547 350.215 157.522C349.581 159.292 349.017 160.872 349.754 162.695L350.454 161.159L350.785 161.81C350.56 162.739 350.439 163.508 350.452 164.465L351.202 164.356C351.747 163.667 351.979 163.22 352.092 162.341C352.378 160.122 353.029 158.451 353.739 156.628C354.027 155.887 354.326 155.122 354.613 154.284C354.935 153.345 355.097 152.306 355.257 151.276C355.358 150.628 355.459 149.983 355.598 149.369C356.885 143.695 358.714 138.101 360.536 132.532C361.276 130.271 362.014 128.014 362.714 125.757C363.04 124.706 363.292 123.592 363.545 122.473C363.937 120.74 364.332 118.994 365.011 117.449C365.468 116.408 365.782 116.182 366.7 115.603C369.061 116.021 372.025 120.102 374.694 123.777C376.224 125.884 377.657 127.856 378.824 128.93C378.993 129.086 379.166 129.238 379.337 129.392C377.864 125.57 375.593 121.884 373.351 118.245C372.148 116.293 370.953 114.354 369.895 112.414C374.688 113.764 380.241 115.944 385.847 118.145C393.647 121.208 401.549 124.311 407.642 125.268C405.896 124.322 404.159 123.358 402.423 122.394C396.917 119.337 391.411 116.281 385.622 113.786C384.777 113.422 383.142 112.876 381.248 112.243C377.047 110.84 371.574 109.012 370.638 107.803C371.235 105.287 375.099 101.639 378.624 98.3127C380.723 96.3311 382.702 94.4633 383.798 93.0164C383.889 92.8976 383.976 92.7766 384.064 92.6555C384.095 92.6134 384.125 92.5713 384.156 92.5294C379.532 94.9338 375.433 98.3732 371.419 101.741C370.67 102.369 369.925 102.995 369.179 103.611L368.855 103.058L368.712 103.606C368.848 102.52 368.985 101.435 369.122 100.35C370.032 93.147 370.938 85.9722 371.572 78.7263C367.022 87.0514 364.795 95.0594 363.036 104.239C362.938 104.357 362.855 104.499 362.773 104.641C362.609 104.925 362.446 105.208 362.152 105.293C359.489 106.064 346.641 98.8178 333.843 91.5999C321.315 84.5349 308.835 77.4966 306 78.0283C306.954 79.4261 326.634 90.5077 337.058 96.3773Z" fill="#B83BC8"/>
<path d="M141.167 279.098C142.98 278.08 144.361 277.304 144.963 276.955C145.593 275.716 147.961 274.556 149.62 273.743C149.942 273.585 150.237 273.44 150.488 273.311L150.42 273.11C150.018 273.182 149.534 273.283 148.998 273.396C146.397 273.941 142.568 274.744 140.973 273.658L140.966 273.201C143.756 271.927 150.594 270.517 153.79 270.06C153.508 269.929 153.224 269.798 152.94 269.667C150.102 268.361 147.173 267.013 144.729 265.071L144.824 264.751C146.138 264.91 148.584 265.838 150.904 266.718C153.323 267.636 155.604 268.501 156.319 268.387C156.468 267.52 155.163 262.74 153.698 257.373C151.949 250.966 149.972 243.721 149.965 241.293C149.963 240.631 149.937 240.128 149.71 239.497C149.299 238.35 148.933 237.327 149.411 236.146L149.866 237.141L150.081 236.72C149.935 236.118 149.856 235.62 149.864 235L150.351 235.071C150.705 235.517 150.856 235.806 150.929 236.376C151.115 237.813 151.538 238.895 151.999 240.076C152.186 240.556 152.38 241.052 152.566 241.594C152.776 242.202 152.881 242.875 152.985 243.542C153.05 243.962 153.115 244.379 153.206 244.777C154.041 248.452 155.229 252.075 156.412 255.682C156.893 257.146 157.372 258.608 157.827 260.07C158.038 260.75 158.202 261.472 158.366 262.196C158.621 263.319 158.877 264.45 159.318 265.45C159.615 266.124 159.819 266.271 160.415 266.646C161.948 266.375 163.873 263.732 165.606 261.352C166.599 259.988 167.529 258.71 168.287 258.015C168.397 257.914 168.509 257.815 168.62 257.715C167.664 260.191 166.19 262.578 164.734 264.935C163.952 266.199 163.177 267.455 162.489 268.711C165.601 267.837 169.208 266.425 172.847 264.999C177.913 263.016 183.044 261.006 187 260.386C185.866 260.999 184.739 261.624 183.611 262.248C180.036 264.227 176.461 266.207 172.702 267.823C172.153 268.059 171.091 268.412 169.862 268.822C167.134 269.731 163.58 270.915 162.972 271.698C163.359 273.327 165.869 275.69 168.158 277.844C169.521 279.128 170.806 280.337 171.517 281.275C171.576 281.351 171.633 281.43 171.69 281.508C171.71 281.535 171.73 281.563 171.75 281.59C168.747 280.033 166.085 277.805 163.479 275.624C162.993 275.217 162.509 274.812 162.025 274.413L161.814 274.771L161.721 274.416C161.81 275.119 161.899 275.822 161.988 276.525C162.578 281.19 163.167 285.837 163.578 290.53C160.624 285.138 159.178 279.951 158.036 274.006C157.972 273.93 157.918 273.838 157.865 273.746C157.759 273.562 157.652 273.378 157.462 273.323C155.732 272.824 147.39 277.517 139.079 282.192C130.945 286.768 122.841 291.326 121 290.982C121.619 290.076 134.399 282.899 141.167 279.098Z" fill="#B83BC8"/>
<path d="M286.899 678.596C286.323 678.427 285.652 678.389 285.05 678.382C284.054 680.022 283.235 681.806 283.938 683.745C284.254 684.616 284.809 685.289 285.704 685.621C286.362 685.866 286.895 685.815 287.573 685.725C288.449 684.233 289.526 682.246 288.838 680.466C288.495 679.578 287.841 678.871 286.899 678.596Z" fill="#B83BC8"/>
<path fill-rule="evenodd" clip-rule="evenodd" d="M280.943 672.256C283.165 671.436 285.206 670.818 287.616 671.065C290.138 671.324 292.406 672.512 293.966 674.491C296.116 677.217 296.765 681.095 296.309 684.472C295.76 688.541 293.823 691.377 290.56 693.816C288.998 694.505 287.552 694.959 285.823 694.884C282.845 694.754 280.339 693.376 278.438 691.149C276.225 688.557 274.884 685.094 275.251 681.67C275.687 677.614 277.906 674.806 280.943 672.256ZM283.78 675.053C283.742 675.063 283.704 675.073 283.667 675.082C281.32 677.389 280.395 679.288 280.393 682.597C280.391 684.898 280.979 688.024 282.691 689.706C283.439 690.441 284.611 690.922 285.682 690.771C286.352 690.676 286.938 690.322 287.508 689.977C287.556 689.949 287.603 689.92 287.651 689.891C287.681 689.873 287.712 689.855 287.743 689.836C290.103 687.365 291.609 684.738 291.418 681.235C291.316 679.367 290.643 677.399 289.123 676.207C287.706 675.096 285.758 674.677 283.984 675.004C283.967 675.007 283.951 675.01 283.935 675.014C283.922 675.017 283.908 675.02 283.895 675.023C283.856 675.032 283.818 675.043 283.78 675.053Z" fill="#B83BC8"/>
<path fill-rule="evenodd" clip-rule="evenodd" d="M281.843 664.697C292.316 661.551 302.209 662.902 311.967 667.501C314.934 668.899 318.497 670.794 319.522 674.114C320.441 677.093 319.266 680.407 317.893 683.079C313.33 691.96 302.899 699.914 293.435 702.977L293.27 703.021C292.131 703.328 290.988 703.635 289.833 703.877C277.574 706.445 264.783 701.468 254.712 695.004C255.755 690.32 257.099 685.706 259.317 681.412C264.006 672.331 272.388 667.81 281.843 664.697ZM277.446 668.036C282.782 665.871 290.006 666.024 295.55 667.165C300.447 668.172 308.061 670.685 310.81 675.108C311.798 676.697 311.874 678.208 311.33 679.981C308.924 687.836 301.751 694.798 294.532 698.451C292.861 699.152 291.122 699.796 289.358 700.223C278.677 702.814 269.224 698.67 260.243 693.342C260.514 689.226 261.564 684.838 263.242 681.048C266.149 674.48 270.797 670.624 277.446 668.036Z" fill="#B83BC8"/>
<path d="M59.3849 217.043C60.9109 216.979 62.5719 216.903 64.0149 217.488C65.8969 218.251 67.2959 219.787 67.9849 221.686C68.9079 224.23 68.4739 227.103 67.3219 229.496C65.8589 232.534 63.7229 234.023 60.6099 235.103C60.0269 235.024 59.4649 234.947 58.8959 234.794C56.4159 234.128 54.0529 232.639 52.8399 230.308C51.8479 228.4 51.782 226.265 52.394 224.231C53.512 220.522 56.0859 218.727 59.3849 217.043Z" fill="#B83BC8"/>
<path d="M88.535 544.015C90.227 543.952 91.696 544.058 93.245 544.813C94.662 545.505 95.729 546.686 96.159 548.218C96.847 550.676 95.9899 553.512 94.7399 555.645C92.5649 559.355 89.855 560.976 85.765 562.032C84.598 562.066 83.327 561.994 82.216 561.597C80.395 560.946 79.034 559.739 78.324 557.927C77.52 555.876 78.349 553.013 79.322 551.162C81.46 547.091 84.324 545.435 88.535 544.015Z" fill="#B83BC8"/>
<path d="M381.725 701C382.659 701.176 384.105 701.458 384.857 702.068C385.932 702.941 385.872 703.432 386.004 704.711C385.344 706.523 384.472 707.46 383.114 708.808C382.035 708.665 380.825 708.356 379.969 707.639C379.353 707.123 379.022 706.458 379.002 705.676C378.945 703.507 380.271 702.378 381.725 701Z" fill="#B83BC8"/>
<path d="M99.2415 749C101.183 749.232 103.062 749.724 104.426 751.22C105.384 752.27 105.741 753.561 105.598 754.962C105.323 757.656 103.611 759.051 101.642 760.685C99.6835 760.782 97.7745 760.817 96.2755 759.327C95.3055 758.362 94.9005 757.044 95.0205 755.705C95.3025 752.576 96.9155 750.902 99.2415 749Z" fill="#B83BC8"/>
<path d="M371.95 442.009C373.359 441.955 374.678 442.147 375.991 442.675C377.982 443.476 379.789 444.96 380.569 447.004C381.416 449.227 381.182 451.739 380.217 453.88C378.653 457.353 375.88 458.776 372.457 460.016C370.736 460.085 368.985 460.172 367.395 459.407C367.152 459.291 366.916 459.162 366.687 459.021C366.457 458.881 366.236 458.728 366.023 458.563C365.809 458.399 365.606 458.223 365.412 458.037C365.217 457.851 365.033 457.655 364.86 457.449C364.686 457.243 364.524 457.029 364.374 456.806C364.223 456.583 364.085 456.353 363.959 456.115C363.832 455.877 363.719 455.633 363.619 455.383C363.519 455.134 363.432 454.879 363.359 454.62C362.559 451.875 363.148 448.93 364.625 446.523C366.41 443.614 368.742 442.693 371.95 442.009Z" fill="#B83BC8"/>
<path d="M350.875 287C355.287 287.143 359.547 290.774 362.804 293.554C365.575 295.917 369.099 299.372 369.217 303.28C369.286 305.539 368.03 306.808 366.601 308.353C365.769 308.684 364.959 309.023 364.066 309.148C361.855 309.458 360.128 308.616 358.42 307.277C354.169 303.945 349.478 296.661 349.02 291.168C348.86 289.25 349.685 288.329 350.875 287Z" fill="#B83BC8"/>
<path d="M236.759 474C238.359 474.198 239.153 474.358 240.426 475.466C240.957 476.667 241.29 477.473 240.797 478.784C240.172 480.447 239 481.128 237.552 482.02C235.897 481.655 234.904 481.365 233.588 480.276C233.23 479.461 232.869 479.072 233.047 478.157C233.471 475.979 235.036 475.135 236.759 474Z" fill="#B83BC8"/>
<path d="M244.321 579C245.681 579.318 247.2 579.603 248.068 580.828C248.794 581.852 248.951 582.905 248.555 584.098C248.071 585.558 246.817 586.26 245.572 586.96C244.037 586.675 242.607 586.514 241.626 585.111C240.98 584.186 240.836 583.119 241.186 582.051C241.674 580.559 243.073 579.774 244.321 579Z" fill="#B83BC8"/>
</g>
</svg>
