<svg width="18" height="22" viewBox="0 0 18 22" fill="none" xmlns="http://www.w3.org/2000/svg">
<path d="M17.5 8.40002L17.6215 8.42935L17.625 8.41489V8.40002C17.625 4.3326 14.3713 0.976761 10.3031 0.875056L10.303 0.875054C6.14348 0.773602 2.69294 4.11256 2.57581 8.16834L2.56398 8.19149L2.49411 8.32839C2.43393 8.44641 2.34795 8.61523 2.24479 8.81843C2.03848 9.22481 1.76335 9.7688 1.4882 10.3191C1.21311 10.8693 0.937717 11.4263 0.730983 11.8586C0.627686 12.0746 0.541076 12.2603 0.480117 12.3989C0.449714 12.468 0.425079 12.5267 0.407832 12.5722C0.399254 12.5948 0.39189 12.6157 0.386494 12.6339C0.382376 12.6477 0.375 12.6737 0.375 12.7V12.7012V12.7024V12.7035V12.7047V12.7058V12.707V12.7081V12.7092V12.7104V12.7115V12.7126V12.7138V12.7149V12.716V12.7171V12.7182V12.7193V12.7204V12.7215V12.7226V12.7236V12.7247V12.7258V12.7268V12.7279V12.729V12.73V12.7311V12.7321V12.7332V12.7342V12.7352V12.7363V12.7373V12.7383V12.7393V12.7403V12.7413V12.7423V12.7433V12.7443V12.7453V12.7463V12.7473V12.7483V12.7492V12.7502V12.7512V12.7521V12.7531V12.754V12.755V12.7559V12.7569V12.7578V12.7587V12.7597V12.7606V12.7615V12.7624V12.7633V12.7642V12.7651V12.766V12.7669V12.7678V12.7687V12.7696V12.7705V12.7713V12.7722V12.7731V12.774V12.7748V12.7757V12.7765V12.7774V12.7782V12.7791V12.7799V12.7807V12.7815V12.7824V12.7832V12.784V12.7848V12.7856V12.7864V12.7872V12.788V12.7888V12.7896V12.7904V12.7912V12.792V12.7927V12.7935V12.7943V12.7951V12.7958V12.7966V12.7973V12.7981V12.7988V12.7996V12.8003V12.801V12.8018V12.8025V12.8032V12.8039V12.8047V12.8054V12.8061V12.8068V12.8075V12.8082V12.8089V12.8096V12.8103V12.811V12.8116V12.8123V12.813V12.8137V12.8143V12.815V12.8156V12.8163V12.817V12.8176V12.8183V12.8189V12.8195V12.8202V12.8208V12.8214V12.8221V12.8227V12.8233V12.8239V12.8245V12.8252V12.8258V12.8264V12.827V12.8276V12.8282V12.8287V12.8293V12.8299V12.8305V12.8311V12.8317V12.8322V12.8328V12.8334V12.8339V12.8345V12.835V12.8356V12.8361V12.8367V12.8372V12.8378V12.8383V12.8388V12.8394V12.8399V12.8404V12.8409V12.8415V12.842V12.8425V12.843V12.8435V12.844V12.8445V12.845V12.8455V12.846V12.8465V12.847V12.8474V12.8479V12.8484V12.8489V12.8493V12.8498V12.8503V12.8507V12.8512V12.8517V12.8521V12.8526V12.853V12.8534V12.8539V12.8543V12.8548V12.8552V12.8556V12.8561V12.8565V12.8569V12.8573V12.8577V12.8582V12.8586V12.859V12.8594V12.8598V12.8602V12.8606V12.861V12.8614V12.8618V12.8622V12.8625V12.8629V12.8633V12.8637V12.8641V12.8644V12.8648V12.8652V12.8655V12.8659V12.8663V12.8666V12.867V12.8673V12.8677V12.868V12.8684V12.8687V12.869V12.8694V12.8697V12.87V12.8704V12.8707V12.871V12.8713V12.8717V12.872V12.8723V12.8726V12.8729V12.8732V12.8735V12.8738V12.8741V12.8744V12.8747V12.875V12.8753V12.8756V12.8759V12.8762V12.8765V12.8767V12.877V12.8773V12.8776V12.8778V12.8781V12.8784V12.8786V12.8789V12.8792V12.8794V12.8797V12.8799V12.8802V12.8804V12.8807V12.8809V12.8812V12.8814V12.8817V12.8819V12.8821V12.8824V12.8826V12.8828V12.883V12.8833V12.8835V12.8837V12.8839V12.8842V12.8844V12.8846V12.8848V12.885V12.8852V12.8854V12.8856V12.8858V12.886V12.8862V12.8864V12.8866V12.8868V12.887V12.8872V12.8874V12.8876V12.8877V12.8879V12.8881V12.8883V12.8885V12.8886V12.8888V12.889V12.8891V12.8893V12.8895V12.8896V12.8898V12.89V12.8901V12.8903V12.8904V12.8906V12.8907V12.8909V12.891V12.8912V12.8913V12.8915V12.8916V12.8918V12.8919V12.892V12.8922V12.8923V12.8924V12.8926V12.8927V12.8928V12.893V12.8931V12.8932V12.8933V12.8934V12.8936V12.8937V12.8938V12.8939V12.894V12.8941V12.8943V12.8944V12.8945V12.8946V12.8947V12.8948V12.8949V12.895V12.8951V12.8952V12.8953V12.8954V12.8955V12.8956V12.8957V12.8958V12.8958V12.8959V12.896V12.8961V12.8962V12.8963V12.8964V12.8964V12.8965V12.8966V12.8967V12.8967V12.8968V12.8969V12.897V12.897V12.8971V12.8972V12.8972V12.8973V12.8974V12.8974V12.8975V12.8976V12.8976V12.8977V12.8978V12.8978V12.8979V12.8979V12.898V12.898V12.8981V12.8981V12.8982V12.8982V12.8983V12.8983V12.8984V12.8984V12.8985V12.8985V12.8986V12.8986V12.8987V12.8987V12.8987V12.8988V12.8988V12.8989V12.8989V12.8989V12.899V12.899V12.899V12.8991V12.8991V12.8991V12.8992V12.8992V12.8992V12.8993V12.8993V12.8993V12.8993V12.8994V12.8994V12.8994V12.8994V12.8995V12.8995V12.8995V12.8995V12.8995V12.8996V12.8996V12.8996V12.8996V12.8996V12.8997V12.8997V12.8997V12.8997V12.8997V12.8997V12.8998V12.8998V12.8998V12.8998V12.8998V12.8998V12.8998V12.8998V12.8999V12.8999V12.8999V12.8999V12.8999V12.8999V12.8999V12.8999V12.8999V12.8999V12.9V12.9V12.9V12.9V12.9V12.9V12.9V12.9C0.375 13.0784 0.435014 13.2368 0.549112 13.3509C0.663209 13.465 0.821594 13.525 1 13.525H2.875V16C2.875 17.1691 3.83096 18.125 5 18.125H5.875V20.5C5.875 20.6784 5.93501 20.8368 6.04911 20.9509C6.16321 21.065 6.32159 21.125 6.5 21.125C6.67841 21.125 6.83679 21.065 6.95089 20.9509C7.06499 20.8368 7.125 20.6784 7.125 20.5V18.125H7.5C7.67841 18.125 7.83679 18.065 7.95089 17.9509C8.06499 17.8368 8.125 17.6784 8.125 17.5C8.125 17.3216 8.06499 17.1632 7.95089 17.0491C7.83679 16.935 7.67841 16.875 7.5 16.875H5C4.72841 16.875 4.51179 16.785 4.36339 16.6366C4.21499 16.4882 4.125 16.2716 4.125 16V13C4.125 12.8216 4.06499 12.6632 3.95089 12.5491C3.83679 12.435 3.67841 12.375 3.5 12.375H1.99805C2.18567 11.9772 2.57852 11.129 2.95037 10.3241C3.17341 9.84126 3.3892 9.37332 3.54923 9.02608L3.7414 8.60897L3.79475 8.49311L3.80875 8.4627L3.81234 8.45491L3.81324 8.45294L3.81347 8.45245L3.81353 8.45232L3.7 8.40002L3.81355 8.45228L3.825 8.4274V8.40002C3.825 4.96648 6.57158 2.12502 10 2.12502C13.4268 2.12502 16.267 4.86203 16.3745 8.28553L14.2792 16.1679L14.275 16.1837V16.2V16.5V16.5161L14.2791 16.5317L15.3791 20.7317L15.3824 20.7443L15.3882 20.7559C15.445 20.8694 15.5299 20.9831 15.6312 21.0699C15.731 21.1555 15.8589 21.225 16 21.225H16.1H16.1203L16.1395 21.2186C16.3103 21.1617 16.4372 21.0713 16.5185 20.9413C16.5982 20.8137 16.625 20.6624 16.625 20.5V20.485L16.6214 20.4704L15.629 16.4015C15.9617 15.1634 16.4572 13.1814 16.8706 11.5042C17.0791 10.6583 17.2668 9.88963 17.4024 9.33241C17.4702 9.0538 17.525 8.82805 17.5628 8.67194L17.6063 8.49212L17.6177 8.44532L17.6205 8.43338L17.6213 8.43037L17.6214 8.42961L17.6215 8.42942L17.5 8.40002Z" fill="white" stroke="white" stroke-width="0.25"/>
</svg>
