<svg width="21" height="18" viewBox="0 0 21 18" fill="none" xmlns="http://www.w3.org/2000/svg">
<path fill-rule="evenodd" clip-rule="evenodd" d="M18.7776 0.429965C19.0247 0.325956 19.2952 0.290084 19.5609 0.326082C19.8266 0.362081 20.0778 0.468633 20.2883 0.63465C20.4989 0.800667 20.661 1.02008 20.758 1.27005C20.855 1.52002 20.8831 1.79141 20.8396 2.05597L18.5716 15.813C18.3516 17.14 16.8956 17.901 15.6786 17.24C14.6606 16.687 13.1486 15.835 11.7886 14.946C11.1086 14.501 9.02563 13.076 9.28163 12.062C9.50163 11.195 13.0016 7.93696 15.0016 5.99997C15.7866 5.23897 15.4286 4.79997 14.5016 5.49997C12.1996 7.23797 8.50363 9.88097 7.28163 10.625C6.20363 11.281 5.64163 11.393 4.96963 11.281C3.74363 11.077 2.60663 10.761 1.67863 10.376C0.42463 9.85597 0.48563 8.13197 1.67763 7.62997L18.7776 0.429965Z" fill="#01B6EF"/>
</svg>
